# xmcd
#
# Track frame offsets:
#	150
#	18497
#	65962
#	98232
#	112632
#	125952
#	138022
#	152040
#	164772
#	175590
#	187522
#	198820
#	232922
#	245495
#	258365
#	270137
#	284397
#	295435
#
# Disc length: 4121
#
# Revision: 2
# Processed by: cddbd v1.5.1PL0 Copyright (c) Steve Scherf et al.
# Submitted via: CDValet v3.31 - Copyright (c) 1997 Greg Leichner
# Normalized: r1:DSETVAR1
#
DISCID=f6101712
DTITLE=Various Artist - Dance Baby Dance
DYEAR=1900
DGENRE=
TTITLE0=Marcia Griffith - Electric Boogie
TTITLE1=Charlie Green - Bus Stop (Remix)
TTITLE2=Stevie Wonder - My Eyes Don't Cry
TTITLE3=Ray Bryant - Madison Time
TTITLE4=Chris Kenner - Land Of 1000 Dances
TTITLE5=Vibrations - Watusie
TTITLE6=Junior Walker and The Allstars - Shotgun
TTITLE7=Bob and Earl - Harlem Shuffle
TTITLE8=Alvin Cash and The Crawlers - Twine time
TTITLE9=Dovells - Hully Gully Baby
TTITLE10=Dee Dee Sharp - Mashed Potatoes
TTITLE11=Chuck Brown - Bustin Loose
TTITLE12=Smokey Robinson and The Miracles - Mickey's Monkey
TTITLE13=Major Lance - Monkey Time
TTITLE14=Gene and Wendell - The Roach
TTITLE15=Peoples Choice - Do It Any Way You Wanna
TTITLE16=Chubby Checker - Pony Time
TTITLE17=Archie Bell and The Drells - Tighten Up
EXTD=
EXTT0=
EXTT1=
EXTT2=
EXTT3=
EXTT4=
EXTT5=
EXTT6=
EXTT7=
EXTT8=
EXTT9=
EXTT10=
EXTT11=
EXTT12=
EXTT13=
EXTT14=
EXTT15=
EXTT16=
EXTT17=
PLAYORDER=
